<mxfile host="app.diagrams.net" modified="2021-03-08T12:56:22.488Z" agent="5.0 (Windows NT 10.0; Win64; x64) AppleWebKit/537.36 (KHTML, like Gecko) Chrome/89.0.4389.72 Safari/537.36 Edg/89.0.774.45" etag="Nl-auIu2bDUVaF_O4BDh" version="14.4.3" type="github">
  <diagram id="C5RBs43oDa-KdzZeNtuy" name="Page-1">
    <mxGraphModel dx="948" dy="514" grid="1" gridSize="10" guides="1" tooltips="1" connect="1" arrows="1" fold="1" page="1" pageScale="1" pageWidth="827" pageHeight="1169" math="0" shadow="0">
      <root>
        <mxCell id="WIyWlLk6GJQsqaUBKTNV-0" />
        <mxCell id="WIyWlLk6GJQsqaUBKTNV-1" parent="WIyWlLk6GJQsqaUBKTNV-0" />
        <mxCell id="vD_eAl3KKH8CogMULwa_-55" value="" style="rounded=0;whiteSpace=wrap;html=1;fontFamily=仿宋;fontSource=https%3A%2F%2Ffonts.googleapis.com%2Fcss%3Ffamily%3D%25E4%25BB%25BF%25E5%25AE%258B;fillColor=none;dashed=1;" vertex="1" parent="WIyWlLk6GJQsqaUBKTNV-1">
          <mxGeometry x="10" y="336" width="780" height="150" as="geometry" />
        </mxCell>
        <mxCell id="vD_eAl3KKH8CogMULwa_-82" value="" style="rounded=0;whiteSpace=wrap;html=1;fontFamily=仿宋;fontSource=https%3A%2F%2Ffonts.googleapis.com%2Fcss%3Ffamily%3D%25E4%25BB%25BF%25E5%25AE%258B;fillColor=none;dashed=1;" vertex="1" parent="WIyWlLk6GJQsqaUBKTNV-1">
          <mxGeometry x="10" y="498" width="780" height="152" as="geometry" />
        </mxCell>
        <mxCell id="vD_eAl3KKH8CogMULwa_-53" value="" style="rounded=0;whiteSpace=wrap;html=1;fontFamily=仿宋;fontSource=https%3A%2F%2Ffonts.googleapis.com%2Fcss%3Ffamily%3D%25E4%25BB%25BF%25E5%25AE%258B;fillColor=none;dashed=1;" vertex="1" parent="WIyWlLk6GJQsqaUBKTNV-1">
          <mxGeometry x="10" y="12" width="780" height="314" as="geometry" />
        </mxCell>
        <mxCell id="vD_eAl3KKH8CogMULwa_-3" value="" style="edgeStyle=orthogonalEdgeStyle;rounded=0;orthogonalLoop=1;jettySize=auto;html=1;fontFamily=Times New Roman;fontSize=12;exitX=0;exitY=0.5;exitDx=0;exitDy=0;" edge="1" parent="WIyWlLk6GJQsqaUBKTNV-1" target="vD_eAl3KKH8CogMULwa_-5" source="vD_eAl3KKH8CogMULwa_-49">
          <mxGeometry relative="1" as="geometry">
            <mxPoint x="168.5" y="1" as="sourcePoint" />
          </mxGeometry>
        </mxCell>
        <mxCell id="vD_eAl3KKH8CogMULwa_-50" style="edgeStyle=orthogonalEdgeStyle;rounded=0;orthogonalLoop=1;jettySize=auto;html=1;exitX=1;exitY=0.5;exitDx=0;exitDy=0;entryX=0;entryY=0.5;entryDx=0;entryDy=0;fontFamily=仿宋;fontSource=https%3A%2F%2Ffonts.googleapis.com%2Fcss%3Ffamily%3D%25E4%25BB%25BF%25E5%25AE%258B;" edge="1" parent="WIyWlLk6GJQsqaUBKTNV-1" source="vD_eAl3KKH8CogMULwa_-5" target="vD_eAl3KKH8CogMULwa_-19">
          <mxGeometry relative="1" as="geometry" />
        </mxCell>
        <mxCell id="vD_eAl3KKH8CogMULwa_-5" value="筛选和修复" style="whiteSpace=wrap;html=1;rounded=1;strokeWidth=2;arcSize=12;fontFamily=Times New Roman;fontSize=12;" vertex="1" parent="WIyWlLk6GJQsqaUBKTNV-1">
          <mxGeometry x="215" y="41" width="100" height="50" as="geometry" />
        </mxCell>
        <mxCell id="vD_eAl3KKH8CogMULwa_-97" style="edgeStyle=orthogonalEdgeStyle;rounded=0;orthogonalLoop=1;jettySize=auto;html=1;exitX=0.5;exitY=1;exitDx=0;exitDy=0;entryX=0.5;entryY=0;entryDx=0;entryDy=0;fontFamily=仿宋;fontSource=https%3A%2F%2Ffonts.googleapis.com%2Fcss%3Ffamily%3D%25E4%25BB%25BF%25E5%25AE%258B;" edge="1" parent="WIyWlLk6GJQsqaUBKTNV-1" source="vD_eAl3KKH8CogMULwa_-19" target="vD_eAl3KKH8CogMULwa_-39">
          <mxGeometry relative="1" as="geometry" />
        </mxCell>
        <mxCell id="vD_eAl3KKH8CogMULwa_-98" style="edgeStyle=orthogonalEdgeStyle;rounded=0;orthogonalLoop=1;jettySize=auto;html=1;entryX=0.5;entryY=0;entryDx=0;entryDy=0;fontFamily=仿宋;fontSource=https%3A%2F%2Ffonts.googleapis.com%2Fcss%3Ffamily%3D%25E4%25BB%25BF%25E5%25AE%258B;" edge="1" parent="WIyWlLk6GJQsqaUBKTNV-1" source="vD_eAl3KKH8CogMULwa_-19" target="vD_eAl3KKH8CogMULwa_-37">
          <mxGeometry relative="1" as="geometry">
            <Array as="points">
              <mxPoint x="448" y="102" />
              <mxPoint x="356" y="102" />
            </Array>
          </mxGeometry>
        </mxCell>
        <mxCell id="vD_eAl3KKH8CogMULwa_-99" style="edgeStyle=orthogonalEdgeStyle;rounded=0;orthogonalLoop=1;jettySize=auto;html=1;entryX=0.5;entryY=0;entryDx=0;entryDy=0;fontFamily=仿宋;fontSource=https%3A%2F%2Ffonts.googleapis.com%2Fcss%3Ffamily%3D%25E4%25BB%25BF%25E5%25AE%258B;" edge="1" parent="WIyWlLk6GJQsqaUBKTNV-1" source="vD_eAl3KKH8CogMULwa_-19" target="vD_eAl3KKH8CogMULwa_-35">
          <mxGeometry relative="1" as="geometry">
            <Array as="points">
              <mxPoint x="448" y="102" />
              <mxPoint x="265" y="102" />
            </Array>
          </mxGeometry>
        </mxCell>
        <mxCell id="vD_eAl3KKH8CogMULwa_-100" style="edgeStyle=orthogonalEdgeStyle;rounded=0;orthogonalLoop=1;jettySize=auto;html=1;entryX=0.5;entryY=0;entryDx=0;entryDy=0;fontFamily=仿宋;fontSource=https%3A%2F%2Ffonts.googleapis.com%2Fcss%3Ffamily%3D%25E4%25BB%25BF%25E5%25AE%258B;" edge="1" parent="WIyWlLk6GJQsqaUBKTNV-1" source="vD_eAl3KKH8CogMULwa_-19" target="vD_eAl3KKH8CogMULwa_-33">
          <mxGeometry relative="1" as="geometry">
            <Array as="points">
              <mxPoint x="448" y="102" />
              <mxPoint x="173" y="102" />
            </Array>
          </mxGeometry>
        </mxCell>
        <mxCell id="vD_eAl3KKH8CogMULwa_-101" style="edgeStyle=orthogonalEdgeStyle;rounded=0;orthogonalLoop=1;jettySize=auto;html=1;entryX=0.5;entryY=0;entryDx=0;entryDy=0;fontFamily=仿宋;fontSource=https%3A%2F%2Ffonts.googleapis.com%2Fcss%3Ffamily%3D%25E4%25BB%25BF%25E5%25AE%258B;" edge="1" parent="WIyWlLk6GJQsqaUBKTNV-1" source="vD_eAl3KKH8CogMULwa_-19" target="vD_eAl3KKH8CogMULwa_-31">
          <mxGeometry relative="1" as="geometry">
            <Array as="points">
              <mxPoint x="448" y="102" />
              <mxPoint x="82" y="102" />
            </Array>
          </mxGeometry>
        </mxCell>
        <mxCell id="vD_eAl3KKH8CogMULwa_-19" value="影像融合" style="whiteSpace=wrap;html=1;rounded=1;strokeWidth=2;arcSize=12;fontFamily=Times New Roman;fontSize=12;" vertex="1" parent="WIyWlLk6GJQsqaUBKTNV-1">
          <mxGeometry x="398" y="41" width="100" height="50" as="geometry" />
        </mxCell>
        <mxCell id="vD_eAl3KKH8CogMULwa_-84" style="edgeStyle=orthogonalEdgeStyle;rounded=0;orthogonalLoop=1;jettySize=auto;html=1;entryX=1;entryY=0.5;entryDx=0;entryDy=0;fontFamily=仿宋;fontSource=https%3A%2F%2Ffonts.googleapis.com%2Fcss%3Ffamily%3D%25E4%25BB%25BF%25E5%25AE%258B;" edge="1" parent="WIyWlLk6GJQsqaUBKTNV-1" source="vD_eAl3KKH8CogMULwa_-23" target="vD_eAl3KKH8CogMULwa_-66">
          <mxGeometry relative="1" as="geometry">
            <Array as="points">
              <mxPoint x="780" y="61" />
              <mxPoint x="780" y="536" />
            </Array>
          </mxGeometry>
        </mxCell>
        <mxCell id="vD_eAl3KKH8CogMULwa_-94" style="edgeStyle=orthogonalEdgeStyle;rounded=0;orthogonalLoop=1;jettySize=auto;html=1;entryX=0.5;entryY=0;entryDx=0;entryDy=0;fontFamily=仿宋;fontSource=https%3A%2F%2Ffonts.googleapis.com%2Fcss%3Ffamily%3D%25E4%25BB%25BF%25E5%25AE%258B;" edge="1" parent="WIyWlLk6GJQsqaUBKTNV-1" source="vD_eAl3KKH8CogMULwa_-23" target="vD_eAl3KKH8CogMULwa_-27">
          <mxGeometry relative="1" as="geometry" />
        </mxCell>
        <mxCell id="vD_eAl3KKH8CogMULwa_-95" style="edgeStyle=orthogonalEdgeStyle;rounded=0;orthogonalLoop=1;jettySize=auto;html=1;entryX=0.5;entryY=0;entryDx=0;entryDy=0;fontFamily=仿宋;fontSource=https%3A%2F%2Ffonts.googleapis.com%2Fcss%3Ffamily%3D%25E4%25BB%25BF%25E5%25AE%258B;" edge="1" parent="WIyWlLk6GJQsqaUBKTNV-1" source="vD_eAl3KKH8CogMULwa_-23" target="vD_eAl3KKH8CogMULwa_-25">
          <mxGeometry relative="1" as="geometry">
            <Array as="points">
              <mxPoint x="631" y="102" />
              <mxPoint x="539" y="102" />
            </Array>
          </mxGeometry>
        </mxCell>
        <mxCell id="vD_eAl3KKH8CogMULwa_-96" style="edgeStyle=orthogonalEdgeStyle;rounded=0;orthogonalLoop=1;jettySize=auto;html=1;entryX=0.5;entryY=0;entryDx=0;entryDy=0;fontFamily=仿宋;fontSource=https%3A%2F%2Ffonts.googleapis.com%2Fcss%3Ffamily%3D%25E4%25BB%25BF%25E5%25AE%258B;" edge="1" parent="WIyWlLk6GJQsqaUBKTNV-1" source="vD_eAl3KKH8CogMULwa_-23" target="vD_eAl3KKH8CogMULwa_-29">
          <mxGeometry relative="1" as="geometry">
            <Array as="points">
              <mxPoint x="631" y="102" />
              <mxPoint x="722" y="102" />
            </Array>
          </mxGeometry>
        </mxCell>
        <mxCell id="vD_eAl3KKH8CogMULwa_-23" value="数字高程&lt;br style=&quot;font-size: 12px;&quot;&gt;数据" style="shape=parallelogram;html=1;strokeWidth=2;perimeter=parallelogramPerimeter;whiteSpace=wrap;rounded=1;arcSize=12;size=0.23;fontFamily=Times New Roman;fontSize=12;" vertex="1" parent="WIyWlLk6GJQsqaUBKTNV-1">
          <mxGeometry x="581" y="41" width="100" height="50" as="geometry" />
        </mxCell>
        <mxCell id="vD_eAl3KKH8CogMULwa_-107" style="edgeStyle=orthogonalEdgeStyle;rounded=0;orthogonalLoop=1;jettySize=auto;html=1;entryX=0.5;entryY=0;entryDx=0;entryDy=0;fontFamily=仿宋;fontSource=https%3A%2F%2Ffonts.googleapis.com%2Fcss%3Ffamily%3D%25E4%25BB%25BF%25E5%25AE%258B;" edge="1" parent="WIyWlLk6GJQsqaUBKTNV-1" source="vD_eAl3KKH8CogMULwa_-25" target="vD_eAl3KKH8CogMULwa_-43">
          <mxGeometry relative="1" as="geometry">
            <Array as="points">
              <mxPoint x="539" y="176" />
              <mxPoint x="82" y="176" />
            </Array>
          </mxGeometry>
        </mxCell>
        <mxCell id="vD_eAl3KKH8CogMULwa_-25" value="高程" style="shape=parallelogram;html=1;strokeWidth=2;perimeter=parallelogramPerimeter;whiteSpace=wrap;rounded=1;arcSize=12;size=0.23;fontFamily=Times New Roman;fontSize=12;" vertex="1" parent="WIyWlLk6GJQsqaUBKTNV-1">
          <mxGeometry x="489" y="116" width="100" height="50" as="geometry" />
        </mxCell>
        <mxCell id="vD_eAl3KKH8CogMULwa_-111" style="edgeStyle=orthogonalEdgeStyle;rounded=0;orthogonalLoop=1;jettySize=auto;html=1;entryX=0.5;entryY=0;entryDx=0;entryDy=0;fontFamily=仿宋;fontSource=https%3A%2F%2Ffonts.googleapis.com%2Fcss%3Ffamily%3D%25E4%25BB%25BF%25E5%25AE%258B;" edge="1" parent="WIyWlLk6GJQsqaUBKTNV-1" source="vD_eAl3KKH8CogMULwa_-27" target="vD_eAl3KKH8CogMULwa_-43">
          <mxGeometry relative="1" as="geometry">
            <Array as="points">
              <mxPoint x="631" y="176" />
              <mxPoint x="82" y="176" />
            </Array>
          </mxGeometry>
        </mxCell>
        <mxCell id="vD_eAl3KKH8CogMULwa_-27" value="坡度" style="shape=parallelogram;html=1;strokeWidth=2;perimeter=parallelogramPerimeter;whiteSpace=wrap;rounded=1;arcSize=12;size=0.23;fontFamily=Times New Roman;fontSize=12;" vertex="1" parent="WIyWlLk6GJQsqaUBKTNV-1">
          <mxGeometry x="581" y="116" width="100" height="50" as="geometry" />
        </mxCell>
        <mxCell id="vD_eAl3KKH8CogMULwa_-109" style="edgeStyle=orthogonalEdgeStyle;rounded=0;orthogonalLoop=1;jettySize=auto;html=1;entryX=0.5;entryY=0;entryDx=0;entryDy=0;fontFamily=仿宋;fontSource=https%3A%2F%2Ffonts.googleapis.com%2Fcss%3Ffamily%3D%25E4%25BB%25BF%25E5%25AE%258B;" edge="1" parent="WIyWlLk6GJQsqaUBKTNV-1" source="vD_eAl3KKH8CogMULwa_-29" target="vD_eAl3KKH8CogMULwa_-43">
          <mxGeometry relative="1" as="geometry">
            <Array as="points">
              <mxPoint x="722" y="176" />
              <mxPoint x="82" y="176" />
            </Array>
          </mxGeometry>
        </mxCell>
        <mxCell id="vD_eAl3KKH8CogMULwa_-29" value="地形&lt;br style=&quot;font-size: 12px;&quot;&gt;多样性" style="shape=parallelogram;html=1;strokeWidth=2;perimeter=parallelogramPerimeter;whiteSpace=wrap;rounded=1;arcSize=12;size=0.23;fontFamily=Times New Roman;fontSize=12;" vertex="1" parent="WIyWlLk6GJQsqaUBKTNV-1">
          <mxGeometry x="672" y="116" width="100" height="50" as="geometry" />
        </mxCell>
        <mxCell id="vD_eAl3KKH8CogMULwa_-110" style="edgeStyle=orthogonalEdgeStyle;rounded=0;orthogonalLoop=1;jettySize=auto;html=1;entryX=0.5;entryY=0;entryDx=0;entryDy=0;fontFamily=仿宋;fontSource=https%3A%2F%2Ffonts.googleapis.com%2Fcss%3Ffamily%3D%25E4%25BB%25BF%25E5%25AE%258B;" edge="1" parent="WIyWlLk6GJQsqaUBKTNV-1" source="vD_eAl3KKH8CogMULwa_-31" target="vD_eAl3KKH8CogMULwa_-43">
          <mxGeometry relative="1" as="geometry" />
        </mxCell>
        <mxCell id="vD_eAl3KKH8CogMULwa_-31" value="6个Landsat&lt;br style=&quot;font-size: 12px;&quot;&gt;波段" style="shape=parallelogram;html=1;strokeWidth=2;perimeter=parallelogramPerimeter;whiteSpace=wrap;rounded=1;arcSize=12;size=0.23;fontFamily=Times New Roman;fontSize=12;" vertex="1" parent="WIyWlLk6GJQsqaUBKTNV-1">
          <mxGeometry x="32" y="116" width="100" height="50" as="geometry" />
        </mxCell>
        <mxCell id="vD_eAl3KKH8CogMULwa_-103" style="edgeStyle=orthogonalEdgeStyle;rounded=0;orthogonalLoop=1;jettySize=auto;html=1;entryX=0.5;entryY=0;entryDx=0;entryDy=0;fontFamily=仿宋;fontSource=https%3A%2F%2Ffonts.googleapis.com%2Fcss%3Ffamily%3D%25E4%25BB%25BF%25E5%25AE%258B;" edge="1" parent="WIyWlLk6GJQsqaUBKTNV-1" source="vD_eAl3KKH8CogMULwa_-33" target="vD_eAl3KKH8CogMULwa_-43">
          <mxGeometry relative="1" as="geometry">
            <Array as="points">
              <mxPoint x="173" y="176" />
              <mxPoint x="82" y="176" />
            </Array>
          </mxGeometry>
        </mxCell>
        <mxCell id="vD_eAl3KKH8CogMULwa_-33" value="NDBI" style="shape=parallelogram;html=1;strokeWidth=2;perimeter=parallelogramPerimeter;whiteSpace=wrap;rounded=1;arcSize=12;size=0.23;fontFamily=Times New Roman;fontSize=12;" vertex="1" parent="WIyWlLk6GJQsqaUBKTNV-1">
          <mxGeometry x="123" y="116" width="100" height="50" as="geometry" />
        </mxCell>
        <mxCell id="vD_eAl3KKH8CogMULwa_-104" style="edgeStyle=orthogonalEdgeStyle;rounded=0;orthogonalLoop=1;jettySize=auto;html=1;entryX=0.5;entryY=0;entryDx=0;entryDy=0;fontFamily=仿宋;fontSource=https%3A%2F%2Ffonts.googleapis.com%2Fcss%3Ffamily%3D%25E4%25BB%25BF%25E5%25AE%258B;" edge="1" parent="WIyWlLk6GJQsqaUBKTNV-1" source="vD_eAl3KKH8CogMULwa_-35" target="vD_eAl3KKH8CogMULwa_-43">
          <mxGeometry relative="1" as="geometry">
            <Array as="points">
              <mxPoint x="265" y="176" />
              <mxPoint x="82" y="176" />
            </Array>
          </mxGeometry>
        </mxCell>
        <mxCell id="vD_eAl3KKH8CogMULwa_-35" value="NDMI" style="shape=parallelogram;html=1;strokeWidth=2;perimeter=parallelogramPerimeter;whiteSpace=wrap;rounded=1;arcSize=12;size=0.23;fontFamily=Times New Roman;fontSize=12;" vertex="1" parent="WIyWlLk6GJQsqaUBKTNV-1">
          <mxGeometry x="215" y="116" width="100" height="50" as="geometry" />
        </mxCell>
        <mxCell id="vD_eAl3KKH8CogMULwa_-105" style="edgeStyle=orthogonalEdgeStyle;rounded=0;orthogonalLoop=1;jettySize=auto;html=1;entryX=0.5;entryY=0;entryDx=0;entryDy=0;fontFamily=仿宋;fontSource=https%3A%2F%2Ffonts.googleapis.com%2Fcss%3Ffamily%3D%25E4%25BB%25BF%25E5%25AE%258B;" edge="1" parent="WIyWlLk6GJQsqaUBKTNV-1" source="vD_eAl3KKH8CogMULwa_-37" target="vD_eAl3KKH8CogMULwa_-43">
          <mxGeometry relative="1" as="geometry">
            <Array as="points">
              <mxPoint x="356" y="176" />
              <mxPoint x="82" y="176" />
            </Array>
          </mxGeometry>
        </mxCell>
        <mxCell id="vD_eAl3KKH8CogMULwa_-37" value="SAVI" style="shape=parallelogram;html=1;strokeWidth=2;perimeter=parallelogramPerimeter;whiteSpace=wrap;rounded=1;arcSize=12;size=0.23;fontFamily=Times New Roman;fontSize=12;" vertex="1" parent="WIyWlLk6GJQsqaUBKTNV-1">
          <mxGeometry x="306" y="116" width="100" height="50" as="geometry" />
        </mxCell>
        <mxCell id="vD_eAl3KKH8CogMULwa_-106" style="edgeStyle=orthogonalEdgeStyle;rounded=0;orthogonalLoop=1;jettySize=auto;html=1;entryX=0.5;entryY=0;entryDx=0;entryDy=0;fontFamily=仿宋;fontSource=https%3A%2F%2Ffonts.googleapis.com%2Fcss%3Ffamily%3D%25E4%25BB%25BF%25E5%25AE%258B;" edge="1" parent="WIyWlLk6GJQsqaUBKTNV-1" source="vD_eAl3KKH8CogMULwa_-39" target="vD_eAl3KKH8CogMULwa_-43">
          <mxGeometry relative="1" as="geometry">
            <Array as="points">
              <mxPoint x="448" y="176" />
              <mxPoint x="82" y="176" />
            </Array>
          </mxGeometry>
        </mxCell>
        <mxCell id="vD_eAl3KKH8CogMULwa_-39" value="NDVI" style="shape=parallelogram;html=1;strokeWidth=2;perimeter=parallelogramPerimeter;whiteSpace=wrap;rounded=1;arcSize=12;size=0.23;fontFamily=Times New Roman;fontSize=12;" vertex="1" parent="WIyWlLk6GJQsqaUBKTNV-1">
          <mxGeometry x="398" y="116" width="100" height="50" as="geometry" />
        </mxCell>
        <mxCell id="vD_eAl3KKH8CogMULwa_-115" style="edgeStyle=orthogonalEdgeStyle;rounded=0;orthogonalLoop=1;jettySize=auto;html=1;exitX=0.5;exitY=0;exitDx=0;exitDy=0;exitPerimeter=0;entryX=0.5;entryY=1;entryDx=0;entryDy=0;fontFamily=仿宋;fontSource=https%3A%2F%2Ffonts.googleapis.com%2Fcss%3Ffamily%3D%25E4%25BB%25BF%25E5%25AE%258B;" edge="1" parent="WIyWlLk6GJQsqaUBKTNV-1" source="vD_eAl3KKH8CogMULwa_-41" target="vD_eAl3KKH8CogMULwa_-43">
          <mxGeometry relative="1" as="geometry" />
        </mxCell>
        <mxCell id="vD_eAl3KKH8CogMULwa_-41" value="训练样本&lt;br style=&quot;font-size: 12px;&quot;&gt;（目视）" style="strokeWidth=2;html=1;shape=mxgraph.flowchart.direct_data;whiteSpace=wrap;fontFamily=Times New Roman;fontSize=12;" vertex="1" parent="WIyWlLk6GJQsqaUBKTNV-1">
          <mxGeometry x="32" y="266" width="100" height="50" as="geometry" />
        </mxCell>
        <mxCell id="vD_eAl3KKH8CogMULwa_-114" style="edgeStyle=orthogonalEdgeStyle;rounded=0;orthogonalLoop=1;jettySize=auto;html=1;exitX=1;exitY=0.5;exitDx=0;exitDy=0;entryX=0;entryY=0.5;entryDx=0;entryDy=0;fontFamily=仿宋;fontSource=https%3A%2F%2Ffonts.googleapis.com%2Fcss%3Ffamily%3D%25E4%25BB%25BF%25E5%25AE%258B;" edge="1" parent="WIyWlLk6GJQsqaUBKTNV-1" source="vD_eAl3KKH8CogMULwa_-43" target="vD_eAl3KKH8CogMULwa_-47">
          <mxGeometry relative="1" as="geometry" />
        </mxCell>
        <mxCell id="vD_eAl3KKH8CogMULwa_-43" value="使用CART&lt;br style=&quot;font-size: 12px;&quot;&gt;监督分类" style="whiteSpace=wrap;html=1;rounded=1;strokeWidth=2;arcSize=12;fontFamily=Times New Roman;fontSize=12;" vertex="1" parent="WIyWlLk6GJQsqaUBKTNV-1">
          <mxGeometry x="32" y="194" width="100" height="50" as="geometry" />
        </mxCell>
        <mxCell id="vD_eAl3KKH8CogMULwa_-117" style="edgeStyle=orthogonalEdgeStyle;rounded=0;orthogonalLoop=1;jettySize=auto;html=1;exitX=1;exitY=0.5;exitDx=0;exitDy=0;entryX=0;entryY=0.5;entryDx=0;entryDy=0;fontFamily=仿宋;fontSource=https%3A%2F%2Ffonts.googleapis.com%2Fcss%3Ffamily%3D%25E4%25BB%25BF%25E5%25AE%258B;" edge="1" parent="WIyWlLk6GJQsqaUBKTNV-1" source="vD_eAl3KKH8CogMULwa_-47" target="vD_eAl3KKH8CogMULwa_-48">
          <mxGeometry relative="1" as="geometry" />
        </mxCell>
        <mxCell id="vD_eAl3KKH8CogMULwa_-47" value="评估验证" style="whiteSpace=wrap;html=1;rounded=1;strokeWidth=2;arcSize=12;fontFamily=Times New Roman;fontSize=12;" vertex="1" parent="WIyWlLk6GJQsqaUBKTNV-1">
          <mxGeometry x="223" y="194" width="100" height="50" as="geometry" />
        </mxCell>
        <mxCell id="vD_eAl3KKH8CogMULwa_-61" style="edgeStyle=orthogonalEdgeStyle;rounded=0;orthogonalLoop=1;jettySize=auto;html=1;exitX=0.5;exitY=1;exitDx=0;exitDy=0;entryX=0.5;entryY=0;entryDx=0;entryDy=0;fontFamily=仿宋;fontSource=https%3A%2F%2Ffonts.googleapis.com%2Fcss%3Ffamily%3D%25E4%25BB%25BF%25E5%25AE%258B;" edge="1" parent="WIyWlLk6GJQsqaUBKTNV-1" source="vD_eAl3KKH8CogMULwa_-48" target="vD_eAl3KKH8CogMULwa_-58">
          <mxGeometry relative="1" as="geometry">
            <Array as="points">
              <mxPoint x="490" y="296" />
              <mxPoint x="646" y="296" />
            </Array>
          </mxGeometry>
        </mxCell>
        <mxCell id="vD_eAl3KKH8CogMULwa_-65" style="edgeStyle=orthogonalEdgeStyle;rounded=0;orthogonalLoop=1;jettySize=auto;html=1;exitX=0.25;exitY=1;exitDx=0;exitDy=0;entryX=0.5;entryY=0;entryDx=0;entryDy=0;entryPerimeter=0;fontFamily=仿宋;fontSource=https%3A%2F%2Ffonts.googleapis.com%2Fcss%3Ffamily%3D%25E4%25BB%25BF%25E5%25AE%258B;" edge="1" parent="WIyWlLk6GJQsqaUBKTNV-1" source="vD_eAl3KKH8CogMULwa_-48" target="vD_eAl3KKH8CogMULwa_-60">
          <mxGeometry relative="1" as="geometry">
            <Array as="points" />
          </mxGeometry>
        </mxCell>
        <mxCell id="vD_eAl3KKH8CogMULwa_-67" style="edgeStyle=orthogonalEdgeStyle;rounded=0;orthogonalLoop=1;jettySize=auto;html=1;exitX=1;exitY=0.5;exitDx=0;exitDy=0;entryX=0.75;entryY=0;entryDx=0;entryDy=0;fontFamily=仿宋;fontSource=https%3A%2F%2Ffonts.googleapis.com%2Fcss%3Ffamily%3D%25E4%25BB%25BF%25E5%25AE%258B;" edge="1" parent="WIyWlLk6GJQsqaUBKTNV-1" source="vD_eAl3KKH8CogMULwa_-48" target="vD_eAl3KKH8CogMULwa_-66">
          <mxGeometry relative="1" as="geometry">
            <Array as="points">
              <mxPoint x="735" y="219" />
            </Array>
          </mxGeometry>
        </mxCell>
        <mxCell id="vD_eAl3KKH8CogMULwa_-48" value="土地利用/&lt;br&gt;覆被数据" style="shape=parallelogram;html=1;strokeWidth=2;perimeter=parallelogramPerimeter;whiteSpace=wrap;rounded=1;arcSize=12;size=0.23;fontFamily=Times New Roman;fontSize=12;" vertex="1" parent="WIyWlLk6GJQsqaUBKTNV-1">
          <mxGeometry x="440" y="194" width="100" height="50" as="geometry" />
        </mxCell>
        <mxCell id="vD_eAl3KKH8CogMULwa_-49" value="Landsat&amp;nbsp;&lt;br style=&quot;font-size: 12px;&quot;&gt;数据" style="shape=parallelogram;html=1;strokeWidth=2;perimeter=parallelogramPerimeter;whiteSpace=wrap;rounded=1;arcSize=12;size=0.23;fontFamily=Times New Roman;fontSize=12;" vertex="1" parent="WIyWlLk6GJQsqaUBKTNV-1">
          <mxGeometry x="32" y="41" width="100" height="50" as="geometry" />
        </mxCell>
        <mxCell id="vD_eAl3KKH8CogMULwa_-116" style="edgeStyle=orthogonalEdgeStyle;rounded=0;orthogonalLoop=1;jettySize=auto;html=1;entryX=0.5;entryY=1;entryDx=0;entryDy=0;fontFamily=仿宋;fontSource=https%3A%2F%2Ffonts.googleapis.com%2Fcss%3Ffamily%3D%25E4%25BB%25BF%25E5%25AE%258B;" edge="1" parent="WIyWlLk6GJQsqaUBKTNV-1" source="vD_eAl3KKH8CogMULwa_-51" target="vD_eAl3KKH8CogMULwa_-47">
          <mxGeometry relative="1" as="geometry" />
        </mxCell>
        <mxCell id="vD_eAl3KKH8CogMULwa_-51" value="验证样本&lt;br style=&quot;font-size: 12px;&quot;&gt;(GE/野外)" style="strokeWidth=2;html=1;shape=mxgraph.flowchart.direct_data;whiteSpace=wrap;fontFamily=Times New Roman;fontSize=12;" vertex="1" parent="WIyWlLk6GJQsqaUBKTNV-1">
          <mxGeometry x="223" y="265" width="100" height="50" as="geometry" />
        </mxCell>
        <mxCell id="vD_eAl3KKH8CogMULwa_-54" value="&lt;font style=&quot;font-size: 16px&quot;&gt;&lt;b&gt;土地利用/覆被数据生产&lt;/b&gt;&lt;/font&gt;" style="text;html=1;strokeColor=none;fillColor=none;align=left;verticalAlign=middle;whiteSpace=wrap;rounded=0;dashed=1;fontFamily=仿宋;fontSource=https%3A%2F%2Ffonts.googleapis.com%2Fcss%3Ffamily%3D%25E4%25BB%25BF%25E5%25AE%258B;" vertex="1" parent="WIyWlLk6GJQsqaUBKTNV-1">
          <mxGeometry x="16" y="18" width="230" height="20" as="geometry" />
        </mxCell>
        <mxCell id="vD_eAl3KKH8CogMULwa_-79" style="edgeStyle=orthogonalEdgeStyle;rounded=0;orthogonalLoop=1;jettySize=auto;html=1;exitX=0.5;exitY=1;exitDx=0;exitDy=0;entryX=0.5;entryY=0;entryDx=0;entryDy=0;fontFamily=仿宋;fontSource=https%3A%2F%2Ffonts.googleapis.com%2Fcss%3Ffamily%3D%25E4%25BB%25BF%25E5%25AE%258B;" edge="1" parent="WIyWlLk6GJQsqaUBKTNV-1" source="vD_eAl3KKH8CogMULwa_-57" target="vD_eAl3KKH8CogMULwa_-78">
          <mxGeometry relative="1" as="geometry" />
        </mxCell>
        <mxCell id="vD_eAl3KKH8CogMULwa_-113" style="edgeStyle=orthogonalEdgeStyle;rounded=0;orthogonalLoop=1;jettySize=auto;html=1;entryX=0.5;entryY=0;entryDx=0;entryDy=0;fontFamily=仿宋;fontSource=https%3A%2F%2Ffonts.googleapis.com%2Fcss%3Ffamily%3D%25E4%25BB%25BF%25E5%25AE%258B;" edge="1" parent="WIyWlLk6GJQsqaUBKTNV-1" source="vD_eAl3KKH8CogMULwa_-57" target="vD_eAl3KKH8CogMULwa_-112">
          <mxGeometry relative="1" as="geometry" />
        </mxCell>
        <mxCell id="vD_eAl3KKH8CogMULwa_-57" value="&lt;span style=&quot;font-family: &amp;#34;times new roman&amp;#34;&quot;&gt;土地利用/&lt;/span&gt;&lt;br style=&quot;font-family: &amp;#34;times new roman&amp;#34;&quot;&gt;&lt;span style=&quot;font-family: &amp;#34;times new roman&amp;#34;&quot;&gt;覆被转移网络&lt;/span&gt;" style="ellipse;whiteSpace=wrap;html=1;fontFamily=仿宋;fontSource=https%3A%2F%2Ffonts.googleapis.com%2Fcss%3Ffamily%3D%25E4%25BB%25BF%25E5%25AE%258B;strokeWidth=2;" vertex="1" parent="WIyWlLk6GJQsqaUBKTNV-1">
          <mxGeometry x="234" y="347" width="100" height="60" as="geometry" />
        </mxCell>
        <mxCell id="vD_eAl3KKH8CogMULwa_-58" value="LUCC分析" style="whiteSpace=wrap;html=1;rounded=1;strokeWidth=2;arcSize=12;fontFamily=Times New Roman;fontSize=12;" vertex="1" parent="WIyWlLk6GJQsqaUBKTNV-1">
          <mxGeometry x="596" y="352" width="100" height="50" as="geometry" />
        </mxCell>
        <mxCell id="vD_eAl3KKH8CogMULwa_-62" style="edgeStyle=orthogonalEdgeStyle;rounded=0;orthogonalLoop=1;jettySize=auto;html=1;exitX=1;exitY=0.5;exitDx=0;exitDy=0;exitPerimeter=0;entryX=0;entryY=0.5;entryDx=0;entryDy=0;fontFamily=仿宋;fontSource=https%3A%2F%2Ffonts.googleapis.com%2Fcss%3Ffamily%3D%25E4%25BB%25BF%25E5%25AE%258B;" edge="1" parent="WIyWlLk6GJQsqaUBKTNV-1" source="vD_eAl3KKH8CogMULwa_-60" target="vD_eAl3KKH8CogMULwa_-58">
          <mxGeometry relative="1" as="geometry" />
        </mxCell>
        <mxCell id="vD_eAl3KKH8CogMULwa_-86" style="edgeStyle=orthogonalEdgeStyle;rounded=0;orthogonalLoop=1;jettySize=auto;html=1;entryX=1;entryY=0.5;entryDx=0;entryDy=0;fontFamily=仿宋;fontSource=https%3A%2F%2Ffonts.googleapis.com%2Fcss%3Ffamily%3D%25E4%25BB%25BF%25E5%25AE%258B;" edge="1" parent="WIyWlLk6GJQsqaUBKTNV-1" source="vD_eAl3KKH8CogMULwa_-60" target="vD_eAl3KKH8CogMULwa_-57">
          <mxGeometry relative="1" as="geometry" />
        </mxCell>
        <mxCell id="vD_eAl3KKH8CogMULwa_-60" value="&lt;span style=&quot;font-family: &amp;#34;times new roman&amp;#34;&quot;&gt;土地利用/覆被转移矩阵&lt;/span&gt;" style="strokeWidth=2;html=1;shape=mxgraph.flowchart.document2;whiteSpace=wrap;size=0.25;fillColor=none;fontFamily=仿宋;fontSource=https%3A%2F%2Ffonts.googleapis.com%2Fcss%3Ffamily%3D%25E4%25BB%25BF%25E5%25AE%258B;" vertex="1" parent="WIyWlLk6GJQsqaUBKTNV-1">
          <mxGeometry x="415" y="352" width="100" height="50" as="geometry" />
        </mxCell>
        <mxCell id="vD_eAl3KKH8CogMULwa_-75" style="edgeStyle=orthogonalEdgeStyle;rounded=0;orthogonalLoop=1;jettySize=auto;html=1;exitX=0;exitY=0.5;exitDx=0;exitDy=0;entryX=1;entryY=0.5;entryDx=0;entryDy=0;fontFamily=仿宋;fontSource=https%3A%2F%2Ffonts.googleapis.com%2Fcss%3Ffamily%3D%25E4%25BB%25BF%25E5%25AE%258B;" edge="1" parent="WIyWlLk6GJQsqaUBKTNV-1" source="vD_eAl3KKH8CogMULwa_-64" target="vD_eAl3KKH8CogMULwa_-74">
          <mxGeometry relative="1" as="geometry" />
        </mxCell>
        <mxCell id="vD_eAl3KKH8CogMULwa_-87" style="edgeStyle=orthogonalEdgeStyle;rounded=0;orthogonalLoop=1;jettySize=auto;html=1;exitX=1;exitY=0.5;exitDx=0;exitDy=0;entryX=0.25;entryY=0;entryDx=0;entryDy=0;fontFamily=仿宋;fontSource=https%3A%2F%2Ffonts.googleapis.com%2Fcss%3Ffamily%3D%25E4%25BB%25BF%25E5%25AE%258B;" edge="1" parent="WIyWlLk6GJQsqaUBKTNV-1" source="vD_eAl3KKH8CogMULwa_-64" target="vD_eAl3KKH8CogMULwa_-66">
          <mxGeometry relative="1" as="geometry" />
        </mxCell>
        <mxCell id="vD_eAl3KKH8CogMULwa_-64" value="LAI数据&lt;br style=&quot;font-size: 12px;&quot;&gt;（AVHRR）" style="shape=parallelogram;html=1;strokeWidth=2;perimeter=parallelogramPerimeter;whiteSpace=wrap;rounded=1;arcSize=12;size=0.23;fontFamily=Times New Roman;fontSize=12;" vertex="1" parent="WIyWlLk6GJQsqaUBKTNV-1">
          <mxGeometry x="596" y="427" width="100" height="50" as="geometry" />
        </mxCell>
        <mxCell id="vD_eAl3KKH8CogMULwa_-71" style="edgeStyle=orthogonalEdgeStyle;rounded=0;orthogonalLoop=1;jettySize=auto;html=1;exitX=0;exitY=0.5;exitDx=0;exitDy=0;entryX=0.93;entryY=0.5;entryDx=0;entryDy=0;entryPerimeter=0;fontFamily=仿宋;fontSource=https%3A%2F%2Ffonts.googleapis.com%2Fcss%3Ffamily%3D%25E4%25BB%25BF%25E5%25AE%258B;" edge="1" parent="WIyWlLk6GJQsqaUBKTNV-1" source="vD_eAl3KKH8CogMULwa_-66" target="vD_eAl3KKH8CogMULwa_-69">
          <mxGeometry relative="1" as="geometry" />
        </mxCell>
        <mxCell id="vD_eAl3KKH8CogMULwa_-66" value="演化单元&lt;br style=&quot;font-size: 12px&quot;&gt;划分" style="whiteSpace=wrap;html=1;rounded=1;strokeWidth=2;arcSize=12;fontFamily=Times New Roman;fontSize=12;" vertex="1" parent="WIyWlLk6GJQsqaUBKTNV-1">
          <mxGeometry x="660" y="511" width="100" height="50" as="geometry" />
        </mxCell>
        <mxCell id="vD_eAl3KKH8CogMULwa_-81" style="edgeStyle=orthogonalEdgeStyle;rounded=0;orthogonalLoop=1;jettySize=auto;html=1;exitX=0.5;exitY=1;exitDx=0;exitDy=0;exitPerimeter=0;entryX=0.5;entryY=0;entryDx=0;entryDy=0;fontFamily=仿宋;fontSource=https%3A%2F%2Ffonts.googleapis.com%2Fcss%3Ffamily%3D%25E4%25BB%25BF%25E5%25AE%258B;" edge="1" parent="WIyWlLk6GJQsqaUBKTNV-1" source="vD_eAl3KKH8CogMULwa_-69" target="vD_eAl3KKH8CogMULwa_-80">
          <mxGeometry relative="1" as="geometry" />
        </mxCell>
        <mxCell id="vD_eAl3KKH8CogMULwa_-69" value="格式化数据&lt;br style=&quot;font-size: 12px;&quot;&gt;（时间序列）" style="strokeWidth=2;html=1;shape=mxgraph.flowchart.stored_data;whiteSpace=wrap;fontFamily=Times New Roman;fontSize=12;" vertex="1" parent="WIyWlLk6GJQsqaUBKTNV-1">
          <mxGeometry x="505" y="511" width="100" height="50" as="geometry" />
        </mxCell>
        <mxCell id="vD_eAl3KKH8CogMULwa_-73" style="edgeStyle=orthogonalEdgeStyle;rounded=0;orthogonalLoop=1;jettySize=auto;html=1;entryX=0;entryY=0.5;entryDx=0;entryDy=0;fontFamily=仿宋;fontSource=https%3A%2F%2Ffonts.googleapis.com%2Fcss%3Ffamily%3D%25E4%25BB%25BF%25E5%25AE%258B;entryPerimeter=0;" edge="1" parent="WIyWlLk6GJQsqaUBKTNV-1" source="vD_eAl3KKH8CogMULwa_-70" target="vD_eAl3KKH8CogMULwa_-69">
          <mxGeometry relative="1" as="geometry" />
        </mxCell>
        <mxCell id="vD_eAl3KKH8CogMULwa_-70" value="多源环境数据" style="strokeWidth=2;html=1;shape=mxgraph.flowchart.multi-document;whiteSpace=wrap;align=center;fontFamily=Times New Roman;fontSize=12;" vertex="1" parent="WIyWlLk6GJQsqaUBKTNV-1">
          <mxGeometry x="362" y="511" width="100" height="50" as="geometry" />
        </mxCell>
        <mxCell id="vD_eAl3KKH8CogMULwa_-74" value="叶面积&lt;br&gt;变化分析" style="whiteSpace=wrap;html=1;rounded=1;strokeWidth=2;arcSize=12;fontFamily=Times New Roman;fontSize=12;" vertex="1" parent="WIyWlLk6GJQsqaUBKTNV-1">
          <mxGeometry x="415" y="427" width="100" height="50" as="geometry" />
        </mxCell>
        <mxCell id="vD_eAl3KKH8CogMULwa_-78" value="土地系统&lt;br&gt;稳定性网络分析" style="whiteSpace=wrap;html=1;rounded=1;strokeWidth=2;arcSize=12;fontFamily=Times New Roman;fontSize=12;" vertex="1" parent="WIyWlLk6GJQsqaUBKTNV-1">
          <mxGeometry x="234" y="427" width="100" height="50" as="geometry" />
        </mxCell>
        <mxCell id="vD_eAl3KKH8CogMULwa_-122" style="edgeStyle=orthogonalEdgeStyle;rounded=0;orthogonalLoop=1;jettySize=auto;html=1;exitX=0;exitY=0.5;exitDx=0;exitDy=0;entryX=1;entryY=0.5;entryDx=0;entryDy=0;fontFamily=仿宋;fontSource=https%3A%2F%2Ffonts.googleapis.com%2Fcss%3Ffamily%3D%25E4%25BB%25BF%25E5%25AE%258B;" edge="1" parent="WIyWlLk6GJQsqaUBKTNV-1" source="vD_eAl3KKH8CogMULwa_-80" target="vD_eAl3KKH8CogMULwa_-119">
          <mxGeometry relative="1" as="geometry" />
        </mxCell>
        <mxCell id="vD_eAl3KKH8CogMULwa_-80" value="因果关系识别" style="whiteSpace=wrap;html=1;rounded=1;strokeWidth=2;arcSize=12;fontFamily=Times New Roman;fontSize=12;" vertex="1" parent="WIyWlLk6GJQsqaUBKTNV-1">
          <mxGeometry x="505" y="586" width="100" height="50" as="geometry" />
        </mxCell>
        <mxCell id="vD_eAl3KKH8CogMULwa_-85" value="&lt;span style=&quot;font-size: 16px&quot;&gt;&lt;b&gt;LUCC及土地系统分析&lt;/b&gt;&lt;/span&gt;" style="text;html=1;strokeColor=none;fillColor=none;align=left;verticalAlign=middle;whiteSpace=wrap;rounded=0;dashed=1;fontFamily=仿宋;fontSource=https%3A%2F%2Ffonts.googleapis.com%2Fcss%3Ffamily%3D%25E4%25BB%25BF%25E5%25AE%258B;" vertex="1" parent="WIyWlLk6GJQsqaUBKTNV-1">
          <mxGeometry x="15" y="341" width="230" height="20" as="geometry" />
        </mxCell>
        <mxCell id="vD_eAl3KKH8CogMULwa_-88" style="edgeStyle=orthogonalEdgeStyle;rounded=0;orthogonalLoop=1;jettySize=auto;html=1;entryX=0.5;entryY=0;entryDx=0;entryDy=0;fontFamily=仿宋;fontSource=https%3A%2F%2Ffonts.googleapis.com%2Fcss%3Ffamily%3D%25E4%25BB%25BF%25E5%25AE%258B;exitX=0.487;exitY=0.859;exitDx=0;exitDy=0;exitPerimeter=0;" edge="1" parent="WIyWlLk6GJQsqaUBKTNV-1" source="vD_eAl3KKH8CogMULwa_-60" target="vD_eAl3KKH8CogMULwa_-74">
          <mxGeometry relative="1" as="geometry">
            <mxPoint x="465" y="399" as="sourcePoint" />
            <mxPoint x="294" y="377" as="targetPoint" />
          </mxGeometry>
        </mxCell>
        <mxCell id="vD_eAl3KKH8CogMULwa_-112" value="土地系统&lt;br&gt;节点网络分析" style="whiteSpace=wrap;html=1;rounded=1;strokeWidth=2;arcSize=12;fontFamily=Times New Roman;fontSize=12;" vertex="1" parent="WIyWlLk6GJQsqaUBKTNV-1">
          <mxGeometry x="80" y="427" width="100" height="50" as="geometry" />
        </mxCell>
        <mxCell id="vD_eAl3KKH8CogMULwa_-118" value="&lt;span style=&quot;font-size: 16px&quot;&gt;&lt;b&gt;植被变化及其因果网络分析&lt;/b&gt;&lt;/span&gt;" style="text;html=1;strokeColor=none;fillColor=none;align=left;verticalAlign=middle;whiteSpace=wrap;rounded=0;dashed=1;fontFamily=仿宋;fontSource=https%3A%2F%2Ffonts.googleapis.com%2Fcss%3Ffamily%3D%25E4%25BB%25BF%25E5%25AE%258B;" vertex="1" parent="WIyWlLk6GJQsqaUBKTNV-1">
          <mxGeometry x="16" y="505" width="230" height="20" as="geometry" />
        </mxCell>
        <mxCell id="vD_eAl3KKH8CogMULwa_-125" style="edgeStyle=orthogonalEdgeStyle;rounded=0;orthogonalLoop=1;jettySize=auto;html=1;exitX=0;exitY=0;exitDx=0;exitDy=0;entryX=1;entryY=0.5;entryDx=0;entryDy=0;fontFamily=仿宋;fontSource=https%3A%2F%2Ffonts.googleapis.com%2Fcss%3Ffamily%3D%25E4%25BB%25BF%25E5%25AE%258B;" edge="1" parent="WIyWlLk6GJQsqaUBKTNV-1" source="vD_eAl3KKH8CogMULwa_-119" target="vD_eAl3KKH8CogMULwa_-123">
          <mxGeometry relative="1" as="geometry">
            <Array as="points">
              <mxPoint x="343" y="590" />
              <mxPoint x="343" y="536" />
            </Array>
          </mxGeometry>
        </mxCell>
        <mxCell id="vD_eAl3KKH8CogMULwa_-126" style="edgeStyle=orthogonalEdgeStyle;rounded=0;orthogonalLoop=1;jettySize=auto;html=1;exitX=0;exitY=0.5;exitDx=0;exitDy=0;entryX=1;entryY=0.5;entryDx=0;entryDy=0;fontFamily=仿宋;fontSource=https%3A%2F%2Ffonts.googleapis.com%2Fcss%3Ffamily%3D%25E4%25BB%25BF%25E5%25AE%258B;" edge="1" parent="WIyWlLk6GJQsqaUBKTNV-1" source="vD_eAl3KKH8CogMULwa_-119" target="vD_eAl3KKH8CogMULwa_-124">
          <mxGeometry relative="1" as="geometry" />
        </mxCell>
        <mxCell id="vD_eAl3KKH8CogMULwa_-119" value="&lt;span style=&quot;font-family: &amp;#34;times new roman&amp;#34;&quot;&gt;植被变化&lt;br&gt;因果网络&lt;/span&gt;" style="ellipse;whiteSpace=wrap;html=1;fontFamily=仿宋;fontSource=https%3A%2F%2Ffonts.googleapis.com%2Fcss%3Ffamily%3D%25E4%25BB%25BF%25E5%25AE%258B;strokeWidth=2;" vertex="1" parent="WIyWlLk6GJQsqaUBKTNV-1">
          <mxGeometry x="362" y="581" width="100" height="60" as="geometry" />
        </mxCell>
        <mxCell id="vD_eAl3KKH8CogMULwa_-123" value="植被演化系统&lt;br&gt;分析" style="whiteSpace=wrap;html=1;rounded=1;strokeWidth=2;arcSize=12;fontFamily=Times New Roman;fontSize=12;" vertex="1" parent="WIyWlLk6GJQsqaUBKTNV-1">
          <mxGeometry x="223" y="511" width="100" height="50" as="geometry" />
        </mxCell>
        <mxCell id="vD_eAl3KKH8CogMULwa_-124" value="植被变化&lt;br&gt;因果分析" style="whiteSpace=wrap;html=1;rounded=1;strokeWidth=2;arcSize=12;fontFamily=Times New Roman;fontSize=12;" vertex="1" parent="WIyWlLk6GJQsqaUBKTNV-1">
          <mxGeometry x="223" y="586" width="100" height="50" as="geometry" />
        </mxCell>
      </root>
    </mxGraphModel>
  </diagram>
</mxfile>
